<svg width="212" height="324" viewBox="0 0 212 324" fill="none" xmlns="http://www.w3.org/2000/svg">
<path d="M193.83 27.0502V44.5669L125.66 69.3049L130.052 50.1942L193.83 27.0502Z" fill="white"/>
<path d="M193.83 44.567V27.0503L139.871 7.47095L136.156 23.6389L193.83 44.567Z" fill="white"/>
<path d="M18.169 73.2812V55.7645L81.947 32.6205L77.5555 51.7312L18.169 73.2812Z" fill="white"/>
<path d="M18.169 55.7645V73.2812L68.4123 91.5161L72.1276 75.3482L18.169 55.7645Z" fill="white"/>
<path d="M105.999 6.37609L88.4333 82.8147L105.999 76.443L123.565 0L105.999 6.37609Z" fill="white"/>
<path d="M211.396 90.7454L0.602966 167.241V184.758L211.396 108.262V90.7454Z" fill="#E30613"/>
<path d="M211.396 73.2286L0.602966 149.724V167.241L211.396 90.7454V73.2286Z" fill="#B6117C"/>
<path d="M211.396 55.7119L0.602966 132.207V149.724L211.396 73.2286V55.7119Z" fill="#612679"/>
<path d="M0.602966 219.787L105.253 181.81L211.396 143.287V125.774L0.602966 202.27V219.787Z" fill="#FEC700"/>
<path d="M211.396 108.262L0.602966 184.758V202.27L211.396 125.774V108.262Z" fill="#ED6D05"/>
<path d="M70.8672 124.224V176.774L53.3011 183.146V178.767L47.4472 180.891V176.512L41.5889 178.631V183.01L35.7351 185.143V189.522L18.169 195.898V143.348L35.7351 136.972V167.626L41.5889 165.498V161.119L47.4472 158.995V163.374L53.3011 161.255V130.6L70.8672 124.224Z" fill="white"/>
<path d="M132.348 101.904V119.42L114.782 125.796V160.83L97.2163 167.228V132.194L79.6503 138.544V121.027L132.348 101.904Z" fill="white"/>
<path d="M193.83 79.6003V97.1171L158.698 109.86V118.619L185.047 109.055V126.571L158.698 136.136V144.894L141.132 151.27V98.7198L193.83 79.6003Z" fill="white"/>
<path d="M0.602966 250.445V259.204L18.169 252.828V244.069L0.602966 250.445Z" fill="white"/>
<path d="M211.396 173.945L193.83 180.322V189.08L211.396 182.704V173.945Z" fill="white"/>
<path d="M44.6235 222.927L45.616 222.406C48.0753 221.074 50.2183 220.831 52.0452 221.674L52.7391 222.953C53.7228 224.753 53.5471 226.018 52.2165 226.737C51.0436 226.998 49.914 227.424 48.8613 228.002C41.8964 231.777 38.9102 237.679 39.9027 245.707L40.3901 247.292L40.6229 247.73C41.4016 249.158 42.8391 249.54 44.9353 248.878C46.6517 248.362 48.3033 247.652 49.8582 246.762L52.4185 245.374L52.5766 245.663L51.9969 245.974L52.0715 246.114C52.2955 245.992 52.6381 246.049 53.0948 246.285L53.2309 246.211L53.4637 246.649L51.9837 247.608L52.0584 247.743L52.3306 247.595L52.5195 248.593L52.7962 248.444L52.9542 248.733L52.6776 248.882L52.7522 249.018C52.8231 248.964 52.9057 248.927 52.9935 248.911C53.0813 248.894 53.1717 248.899 53.2573 248.924C53.3429 248.949 53.4213 248.994 53.4862 249.056C53.5511 249.117 53.6005 249.192 53.6305 249.276L53.9204 249.118L53.6964 249.066L53.6218 248.926L53.6876 248.694L54.5659 248.23L54.724 248.519L54.9348 248.58L54.8777 248.808L54.4386 249.04L54.5132 249.175L54.9524 249.316L55.3915 249.083L55.172 249.009L55.0973 248.869L55.4486 248.501L55.9493 248.409C56.4118 249.259 53.3275 251.48 46.6963 255.074C42.5127 257.343 38.4652 256.905 34.5538 253.76L33.5437 251.908C31.1547 247.529 31.5939 241.232 34.8612 233.016C36.9727 228.715 40.3881 225.185 44.6235 222.927ZM52.9982 245.76L53.8545 245.3L54.0082 245.589L53.1563 246.027L52.9982 245.76Z" fill="white"/>
<path d="M71.9958 212.522L72.1671 212.46C73.2474 212.066 74.7186 212.707 76.5806 214.383L76.8133 214.492L77.0944 215.259C77.27 215.745 76.6069 216.463 75.0962 217.409L75.1533 217.562C78.8041 219.76 81.1229 222.216 82.1095 224.928L82.3949 225.712C84.8483 232.426 83.5235 237.797 78.4206 241.823C76.9908 242.869 75.4341 243.731 73.7875 244.389L71.9782 245.046C66.8812 246.885 62.2657 245.615 58.1318 241.236C57.7893 241.28 57.2535 240.426 56.4586 238.661L56.0546 237.553C54.216 232.517 56.2112 226.614 62.0402 219.844C65.8755 215.981 69.194 213.54 71.9958 212.522ZM62.6375 236.773L62.6946 236.927C63.3533 238.731 64.8816 239.353 67.2793 238.792L68.5968 238.315C72.1363 237.03 74.6805 233.819 76.2292 228.681C76.2729 227.136 76.0819 225.593 75.6627 224.104C75.0304 222.689 74.5473 221.861 74.2135 221.621V221.109C73.3352 219.651 72.8434 218.946 72.7072 218.994C69.6478 220.597 66.6865 224.03 63.8232 229.294C62.3213 232.339 61.9261 234.832 62.6375 236.773Z" fill="white"/>
<path d="M176.654 173.359L177.748 172.965C178.431 172.716 179.166 172.643 179.885 172.751C180.604 172.86 181.284 173.147 181.863 173.586L182.034 174.051L181.661 192.754C181.186 195.965 181.112 200.282 181.437 205.703L181.143 206.343L180.673 206.513L179.878 206.272L179.777 206.483L179 206.767L178.047 206.583L176.545 207.306L174.788 206.36L174.388 205.27C174.222 204.805 174.188 203.584 174.287 201.604L166.734 192.123L164.099 188.839L163.941 188.896L162.465 205.537C162.287 207.439 162.392 209.358 162.777 211.23L162.992 211.326L163.045 211.484C163.177 212.36 163.12 212.868 162.878 212.955L162.408 213.126L160.507 212.758L160.195 212.872L159.629 213.253H159.102L158.904 213.691L158.689 213.594L158.535 213.651L158.434 213.862L156.348 212.504L156.12 211.882C155.439 210.012 155.804 202.112 157.213 190.801L158.065 181.5C158.463 180.846 160.113 179.895 163.014 178.649C163.717 178.39 164.635 178.649 165.768 179.411L165.825 179.568C166.896 182.507 169.839 187.683 174.648 192.465C175.196 189.448 175.258 183.299 174.836 176.652C174.702 175.172 175.079 174.27 175.969 173.945C175.921 173.757 176.141 173.56 176.654 173.359Z" fill="white"/>
<path d="M123.592 192.439L126.754 191.467L129.858 190.337C130.133 190.226 130.434 190.201 130.724 190.265C131.013 190.328 131.276 190.477 131.479 190.691L131.365 190.91C131.918 190.748 132.243 190.81 132.357 191.099L132.419 191.27L130.631 191.918L130.688 192.075L131.33 191.843L131.453 192.172L131.136 192.285L131.356 192.399L131.259 192.614L131.378 192.942L132.256 192.802L132.318 192.973L132.199 193.192L132.265 193.367C132.924 193.125 133.411 193.437 133.727 194.304C134.188 194.204 134.465 194.282 134.562 194.55L134.68 194.878L125.436 199.524C124.613 199.816 124.337 201.086 124.606 203.334C122.933 216.607 122.09 223.562 122.09 227.034C121.673 227.91 121.247 228.458 120.821 228.611L119.92 228.195C119.27 228.431 118.849 228.274 118.651 227.735L118.541 227.971L118.388 228.028C118.26 227.757 117.54 227.463 116.218 227.153L115.415 226.504C114.615 224.315 115.112 218.968 116.903 207.621L117.088 204.048L115.432 204.963C113.14 205.795 111.237 205.318 109.723 203.531L108.524 201.753L108.401 201.425C108.153 200.733 108.349 199.923 108.99 198.994L111.124 198.224C114.541 196.976 115.994 196.568 123.592 192.439Z" fill="white"/>
<path d="M149.546 183.063C149.565 183.147 149.603 183.225 149.657 183.291C149.711 183.358 149.78 183.411 149.858 183.447C149.936 183.482 150.022 183.499 150.108 183.497C150.194 183.494 150.278 183.471 150.354 183.431L150.464 183.724L150.024 183.886L150.081 184.044C150.578 183.864 150.863 183.869 150.933 184.066L150.99 184.223L150.402 184.434C150.512 184.736 150.841 184.78 151.452 184.565L151.557 184.858L151.118 185.02L151.171 185.161L152.958 184.512L154.578 184.766L154.482 184.977L154.53 185.117C155.031 184.937 155.316 184.95 155.408 185.156C155.54 185.515 153.845 186.575 150.323 188.335C149.073 188.785 146.949 190.338 143.951 192.995L143.512 197.738L143.665 197.681C144.128 197.295 145.611 196.587 148.114 195.557L148.575 195.903L148.18 196.222L148.233 196.358C149.027 196.069 149.462 196.021 149.55 196.218L148.918 196.8L148.966 196.941L149.26 196.831L149.287 197.33C149.467 197.829 150.007 198.083 150.903 198.097L150.951 198.237L150.872 198.443L150.92 198.578C151.416 198.399 151.702 198.412 151.799 198.622L151.847 198.758C151.958 199.05 149.12 200.975 143.332 204.534C142.554 204.814 142.102 207.538 141.975 210.954L149.273 207.013L149.383 207.306L149.537 207.249L150.226 206.811C150.534 207.249 150.876 207.416 151.245 207.284L151.408 207.722C151.264 207.793 151.138 207.895 151.038 208.02C150.938 208.144 150.866 208.289 150.828 208.445L150.516 208.558L150.565 208.694L151.469 208.37L151.579 208.681L150.837 208.948L151.043 209.031L151.1 209.189L150.995 209.382C152.462 208.848 153.344 208.812 153.63 209.264L153.551 209.469C154.073 209.36 154.376 209.417 154.46 209.649C153.788 210.525 153.849 210.63 149.102 213.384C143.461 216.564 140.782 218.549 141.066 219.34C141.118 219.909 140.833 220.518 140.218 221.157L140.06 221.214L138.905 220.776L138.593 220.886L137.904 221.324C137.812 221.07 137.227 221 136.147 221.114L135.743 221.416L135.537 221.333L135.48 221.179V220.654L135.181 220.763L135.084 220.973L134.944 221.026L134.733 220.925L134.68 220.79C134.43 217.549 135.067 206.154 136.591 190.1C136.231 189.108 136.708 188.261 138.022 187.56L143.898 185.62L149.546 183.063Z" fill="white"/>
<path d="M15.9733 284.778C16.0391 284.953 16.5046 285.032 17.3742 285.015C17.5235 285.417 17.8924 285.593 18.4896 285.531L18.5511 285.706L18.4501 285.917L18.516 286.092C18.9551 285.934 19.1966 285.965 19.2757 286.184L19.1791 286.398C19.6973 286.212 20.5492 286.522 21.7349 287.331C21.8974 287.769 21.4934 287.865 10.7298 292.998C9.61728 293.401 9.22351 294.531 9.54848 296.387C9.41088 296.434 9.38599 297.37 9.47382 299.194L9.63192 299.137L13.7775 297.289C14.5124 297.757 15.013 297.94 15.2794 297.841L15.5824 298.673L16.0874 299.037L16.1445 299.194L15.6571 299.37L15.7229 299.545L15.8767 299.488L16.8033 298.953L17.9099 298.923L17.9758 299.098L17.8572 299.317L17.9231 299.488C18.6301 299.387 19.021 299.431 19.0868 299.615C18.1529 301.145 14.7436 303.68 8.85901 307.221C7.81383 315.581 7.5723 320.797 7.2605 321.935C6.3822 322.255 6.00453 322.575 6.1187 322.899L5.96501 322.956L5.3414 322.807L5.45998 322.588L5.21844 321.931L4.88908 322.054C5.00765 322.373 4.95496 322.575 4.73538 322.654C4.42358 322.154 4.04591 321.984 3.60676 322.146L3.66385 322.299C3.79559 322.877 3.73411 323.214 3.47941 323.306L3.25983 323.192L3.08856 323.254L2.87777 323.691L1.92042 323.127C1.85597 323.159 1.78489 323.176 1.71271 323.177C1.64053 323.177 1.56918 323.161 1.5042 323.13C1.43922 323.099 1.38235 323.053 1.33801 322.996C1.29367 322.939 1.26304 322.873 1.24852 322.803C0.532699 320.841 0.238467 315.533 1.24852 307.756C2.12682 300.019 2.11657 294.898 1.21778 292.393C1.52518 290.545 2.06534 289.477 2.84263 289.197L5.71908 288.899C11.3226 285.987 11.4764 286.412 15.9733 284.778Z" fill="white"/>
<path d="M34.1629 277.815L35.5155 277.325C42.2565 274.877 46.222 275.766 49.0458 279.742L49.5376 280.618L49.7001 281.056C50.1832 282.384 47.9655 285.689 43.047 290.97C46.8969 296.809 49.2844 301.003 50.2095 303.552L50.4247 303.648L50.473 303.788V304.314L51.1186 305.627L51.022 305.838L50.7277 305.947C50.5784 305.54 50.4027 305.378 50.192 305.452C50.3017 305.754 50.2578 305.938 50.0602 306.008L49.7484 306.122L49.5552 306.017L49.3971 306.074C49.3971 306.512 49.318 306.788 49.1687 306.845L48.3475 306.963L48.1675 307.401C48.1337 307.299 48.0795 307.205 48.0081 307.125C47.9367 307.045 47.8496 306.98 47.7521 306.934C47.6547 306.889 47.5489 306.864 47.4414 306.86C47.3339 306.857 47.2268 306.875 47.1267 306.915C43.8364 303.36 40.8459 299.54 38.1856 295.494L33.0299 300.101C32.9245 301.747 32.7137 302.728 32.3975 303.052L32.5205 303.871L32.0814 304.033V302.107L32.0243 301.949L31.8662 302.006L31.7081 303.941L32.1472 304.143C31.7652 304.279 31.3919 305.605 31.023 308.115C30.8913 308.176 30.8298 308.942 30.8429 310.414C30.6365 310.488 30.496 311.675 30.4301 313.97L30.2764 314.027C30.1096 313.567 29.4552 313.343 28.3266 313.361L28.1422 313.799C28.0675 313.593 27.8743 313.545 27.5625 313.659L27.1673 313.978C27.0338 313.781 26.8489 313.623 26.6322 313.522C26.4156 313.42 26.1755 313.38 25.9376 313.405L25.7664 312.936C24.8881 310.504 25.2028 302.768 26.7105 289.727C24.0756 289.067 22.5957 288.298 22.2707 287.419L22.0028 286.674C21.8887 286.114 23.4198 284.533 26.5964 281.932C26.8042 280.942 29.3264 279.57 34.1629 277.815ZM33.6667 291.47L33.9785 291.356C39.0814 286.578 41.185 283.311 41.9183 281.31L41.8613 281.152L38.7872 282.111L38.4886 282.216C34.6636 283.605 33.7326 284.625 34.0619 285.527C33.98 288.989 33.8482 290.97 33.6667 291.47Z" fill="white"/>
<path d="M67.1564 266.337L67.332 266.272C68.465 265.866 70.0035 266.537 71.9475 268.286L72.189 268.4L72.4833 269.201C72.6677 269.709 71.9739 270.458 70.3929 271.448L70.4544 271.61C74.2604 273.905 76.6845 276.471 77.7267 279.308L78.0254 280.127C80.59 287.134 79.2038 292.748 73.8666 296.97C72.3738 298.06 70.7512 298.962 69.0359 299.654L67.1344 300.355C61.809 302.29 56.9783 300.966 52.6424 296.383C52.2823 296.435 51.7026 295.538 50.8858 293.694L50.4467 292.538C48.5232 287.283 50.6091 281.111 56.7046 274.023C60.733 269.974 64.217 267.412 67.1564 266.337ZM57.3721 291.693L57.4292 291.85C58.1172 293.736 59.7157 294.386 62.2247 293.799L63.5992 293.3C67.2969 291.96 69.9552 288.603 71.5742 283.228C71.6203 281.613 71.4204 280.001 70.9814 278.446C70.3183 276.97 69.8176 276.103 69.4707 275.853V275.315C68.566 273.791 68.0391 273.055 67.8985 273.125C64.6986 274.798 61.6026 278.387 58.6105 283.893C57.0442 287.064 56.6314 289.664 57.3721 291.693Z" fill="white"/>
<path d="M101.546 253.607L102.64 253.209C103.323 252.96 104.058 252.887 104.777 252.995C105.496 253.104 106.176 253.391 106.755 253.83L106.926 254.299L106.553 273.002C106.078 276.214 106.004 280.53 106.329 285.952L106.035 286.587L105.56 286.779L104.765 286.539L104.664 286.749L103.887 287.033L102.934 286.849L101.428 287.572L99.6712 286.626L99.2716 285.536C99.1047 285.074 99.071 283.853 99.1706 281.87L91.6171 272.389L89.0042 269.105L88.8461 269.162L87.3705 285.803C87.1912 287.705 87.2963 289.624 87.6823 291.496L87.8975 291.592L87.9502 291.75C88.082 292.626 88.0249 293.134 87.7833 293.221L87.3135 293.392L85.4119 293.024L85.1001 293.138L84.5336 293.519H84.0066L83.809 293.957L83.5938 293.861L83.4401 293.917L83.3391 294.128L81.2532 292.77L81.0248 292.148C80.3441 290.278 80.7086 282.378 82.1183 271.067L82.9702 261.77C83.3713 261.113 85.0211 260.161 87.9195 258.915C88.6221 258.661 89.54 258.915 90.673 259.677L90.7301 259.834C91.8016 262.773 94.7439 267.949 99.5526 272.731C100.102 269.714 100.163 263.565 99.7415 256.918C99.6039 255.438 99.9815 254.535 100.874 254.211C100.813 254.014 101.033 253.817 101.546 253.607Z" fill="white"/>
<path d="M176.812 226.119L177.906 225.72C178.589 225.474 179.324 225.402 180.043 225.51C180.761 225.619 181.441 225.905 182.021 226.342L182.192 226.811L181.823 245.514C181.346 248.726 181.271 253.042 181.599 258.464L181.301 259.099L180.835 259.269L180.04 259.029L179.939 259.243L179.158 259.528L178.209 259.344L176.703 260.066L174.946 259.116L174.551 258.026C174.384 257.564 174.35 256.343 174.45 254.36L166.892 244.879L164.279 241.599L164.125 241.656L162.65 258.315C162.474 260.218 162.581 262.136 162.966 264.008L163.177 264.108L163.234 264.262C163.366 265.137 163.309 265.65 163.063 265.737L162.597 265.904L160.696 265.536L160.384 265.65L159.813 266.035H159.29L159.088 266.473L158.878 266.372L158.719 266.429L158.623 266.644L156.537 265.286L156.309 264.66C155.628 262.795 155.992 254.89 157.402 243.579L158.258 234.269C158.657 233.612 160.305 232.661 163.203 231.418C163.909 231.158 164.827 231.412 165.957 232.18L166.014 232.333C167.09 235.276 170.032 240.452 174.841 245.234C175.39 242.212 175.451 236.068 175.025 229.416C174.893 227.936 175.271 227.039 176.163 226.715C176.079 226.531 176.303 226.347 176.812 226.119Z" fill="white"/>
<path d="M123.754 245.208L126.916 244.236L130.021 243.11C130.295 242.999 130.597 242.973 130.886 243.036C131.176 243.1 131.439 243.249 131.641 243.465L131.523 243.68C132.081 243.517 132.401 243.583 132.515 243.868L132.581 244.043L130.794 244.691L130.851 244.849L131.492 244.612L131.611 244.941L131.299 245.055L131.518 245.173L131.417 245.383L131.54 245.711L132.419 245.571L132.485 245.746L132.366 245.965L132.427 246.136C133.086 245.9 133.574 246.212 133.89 247.073C134.351 246.973 134.632 247.073 134.729 247.319L134.847 247.651L125.603 252.298C124.78 252.59 124.504 253.858 124.773 256.103C123.095 269.376 122.257 276.331 122.257 279.808C121.818 280.684 121.414 281.231 120.983 281.384L120.105 280.946C119.455 281.183 119.033 281.029 118.836 280.486L118.726 280.723L118.568 280.78C118.445 280.511 117.723 280.219 116.403 279.904L115.595 279.256C114.796 277.066 115.292 271.715 117.084 260.373L117.272 256.799L115.612 257.715C113.326 258.547 111.423 258.068 109.903 256.278L108.705 254.5L108.586 254.172C108.331 253.48 108.529 252.674 109.174 251.746L111.309 250.971C114.703 249.749 116.157 249.324 123.754 245.208Z" fill="white"/>
<path d="M149.708 235.836C149.725 235.921 149.762 236 149.815 236.068C149.868 236.135 149.937 236.19 150.015 236.226C150.093 236.262 150.179 236.28 150.266 236.277C150.352 236.274 150.436 236.25 150.512 236.209L150.617 236.506L150.178 236.668L150.235 236.822C150.736 236.642 151.017 236.651 151.091 236.848L151.148 237.001L150.556 237.216C150.665 237.518 151.017 237.557 151.605 237.347L151.715 237.641L151.276 237.803L151.324 237.943L153.111 237.295L154.736 237.544L154.635 237.759L154.688 237.895C155.184 237.715 155.47 237.728 155.566 237.938C155.695 238.292 153.999 239.35 150.477 241.113C149.229 241.569 147.107 243.123 144.109 245.777L143.67 250.52L143.828 250.463C144.29 250.072 145.773 249.364 148.276 248.339L148.716 248.681L148.325 249L148.373 249.14C149.172 248.851 149.607 248.803 149.69 249L149.058 249.583L149.111 249.718L149.405 249.613L149.431 250.113C149.611 250.607 150.147 250.866 151.043 250.879L151.096 251.015L151.012 251.22L151.065 251.361C151.56 251.183 151.845 251.196 151.921 251.4L151.974 251.54C152.085 251.832 149.245 253.757 143.455 257.316C142.682 257.597 142.229 260.32 142.102 263.736L149.401 259.795L149.506 260.093L149.664 260.036L150.354 259.598C150.661 260.036 150.999 260.207 151.372 260.071L151.535 260.509C151.391 260.579 151.265 260.68 151.164 260.804C151.063 260.928 150.99 261.072 150.951 261.227L150.639 261.341L150.692 261.481L151.592 261.152L151.706 261.463L150.96 261.735L151.166 261.818L151.223 261.971L151.118 262.168C152.582 261.634 153.46 261.595 153.753 262.05L153.669 262.256C154.192 262.142 154.495 262.203 154.583 262.436C153.906 263.311 153.968 263.417 149.225 266.171C143.636 269.333 140.985 271.306 141.272 272.092C141.32 272.661 141.039 273.265 140.42 273.909L140.266 273.966L139.111 273.528L138.8 273.642L138.057 274.08C137.965 273.83 137.381 273.76 136.301 273.874L135.901 274.176L135.695 274.093L135.638 273.94V273.432L135.343 273.537L135.242 273.751L135.106 273.8L134.891 273.703L134.843 273.563C134.588 270.327 135.225 258.928 136.753 242.874C136.393 241.884 136.867 241.039 138.185 240.338L144.052 238.385L149.708 235.836Z" fill="white"/>
<path d="M194.374 219.949L195.134 219.673C199.123 218.23 203.467 218.077 207.549 219.235C209.44 220.076 210.611 221.118 211.062 222.362C212.09 225.177 210.706 231.413 206.912 239.318C204.809 242.508 202.345 245.447 199.569 248.076C196.387 250.412 194.494 252.058 193.891 253.016L192.183 253.454C190.649 255.03 189.664 255.897 189.227 256.055L189.012 255.954L189.192 255.048L189.052 255.1L188.261 255.722L187.774 254.877L187.853 254.185L187.717 254.233L187.084 254.811L186.869 254.711L186.821 254.575V254.067L186.663 254.124L186.114 254.5C185.811 254.61 185.587 254.461 185.442 254.063C184.919 254.172 184.616 253.677 184.533 253.445C184.796 252.814 185.306 252.617 186.057 251.978C187.292 250.054 188.146 245.11 188.617 237.146C188.907 232.329 188.955 228.799 188.753 228.247C186.938 228.904 185.104 228.218 183.25 226.189C182.937 225.357 186.645 223.277 194.374 219.949ZM195.103 243.281C202.16 236.239 205.041 230.082 203.754 226.553C202.911 224.234 200.534 223.459 196.623 224.227C195.88 224.494 195.657 225.589 195.951 227.503L195.103 243.281Z" fill="white"/>
</svg>
